<?xml version="1.0" standalone="no"?>
<!DOCTYPE svg PUBLIC "-//W3C//DTD SVG 20010904//EN"
 "http://www.w3.org/TR/2001/REC-SVG-20010904/DTD/svg10.dtd">
<svg version="1.0" xmlns="http://www.w3.org/2000/svg"
 width="512.000000pt" height="512.000000pt" viewBox="0 0 512.000000 512.000000"
 preserveAspectRatio="xMidYMid meet">

<g transform="translate(0.000000,512.000000) scale(0.100000,-0.100000)"
fill="currentColor" stroke="none">
<path d="M2380 4794 c-196 -18 -455 -78 -628 -145 -673 -264 -1188 -845 -1361
-1535 -53 -211 -65 -318 -65 -554 0 -236 12 -343 65 -554 195 -779 819 -1407
1599 -1610 221 -57 327 -70 570 -70 236 0 343 12 554 65 779 195 1407 819
1610 1599 57 221 70 327 70 570 0 243 -13 349 -70 570 -223 858 -945 1507
-1829 1645 -97 15 -425 27 -515 19z m381 -164 c718 -73 1345 -508 1664 -1155
398 -806 231 -1772 -416 -2402 -170 -165 -325 -275 -534 -378 -573 -283 -1241
-285 -1818 -6 -651 314 -1094 949 -1167 1670 -53 535 117 1099 459 1514 68 84
231 246 311 310 414 333 975 500 1501 447z"/>
<path d="M1775 3346 c-101 -44 -125 -178 -46 -257 112 -113 296 -12 267 146
-18 94 -131 151 -221 111z"/>
<path d="M3215 3346 c-101 -44 -125 -178 -46 -257 112 -113 296 -12 267 146
-18 94 -131 151 -221 111z"/>
<path d="M2358 2229 c-375 -43 -703 -245 -882 -543 -43 -71 -45 -107 -11 -141
46 -47 102 -30 140 44 36 72 116 168 197 238 129 111 303 191 495 230 123 24
404 24 527 0 116 -24 261 -76 350 -127 134 -77 273 -214 336 -332 33 -62 53
-78 95 -78 35 0 75 42 75 78 0 58 -111 214 -231 325 -264 244 -659 355 -1091
306z"/>
</g>
</svg>
